<svg xmlns="http://www.w3.org/2000/svg" id="artboard-svg" width="460" height="465" viewBox="0 0 460 465"><defs><style>.cls-1 { clip-path: url(#clip-Login_path); } .cls-2 { fill: #eee; } .cls-3, .cls-4 { fill: #da0037; } .cls-3 { font-size: 110.949px; font-family: Kalameh-Medium, Kalameh; } .cls-3, .cls-6 { font-weight: 500; } .cls-5, .cls-6, .cls-7 { fill: #fff; } .cls-5 { font-size: 48.071px; font-family: Kalameh-Regular, Kalameh; } .cls-6 { font-size: 45px; font-family: Vazir-Medium, Vazir; }</style><clipPath id="clip-Login_path"><path d="M0 0h1080v2400H0z"/></clipPath></defs><g transform="translate(-311 -618)"><g id="Login_path" class="cls-1" data-name="Login path"><g id="Group_3239" data-name="Group 3239" transform="translate(-1303.762)"><g id="Group_3236" data-name="Group 3236"><text id="آرامـــــــ_بار" class="cls-3" data-name="آرامـــــــ بار" transform="translate(1843.876 963.767)"><tspan x="-184.951" y="0">آرامـــــــ بار</tspan></text><g id="Group_3235" data-name="Group 3235"><path id="Path_4184" d="M1709.9 759.545c.636.088 1.28.088 1.921.131h36.013c.64-.043 1.285-.043 1.921-.131a14.086 14.086 0 0 0 3.7-1.037 14.107 14.107 0 0 0-1.815-26.524c-.617-.173-1.256-.261-1.884-.392l-1.921-.131h-36.013a14.109 14.109 0 0 0-7.331 2.054 14.108 14.108 0 0 0 5.41 26.03z" class="cls-4" data-name="Path 4184"/><path id="Path_4185" d="M1627.7 646.682c.636.088 1.281.088 1.922.131h36.012c.641-.043 1.285-.043 1.921-.131a14.045 14.045 0 0 0 3.7-1.037 14.108 14.108 0 0 0-1.815-26.524c-.617-.173-1.257-.261-1.885-.392l-1.921-.131h-36.012a14.1 14.1 0 0 0-7.331 2.054 14.108 14.108 0 0 0 5.409 26.03z" class="cls-4" data-name="Path 4185"/><path id="Path_4186" d="M1659.305 731.984c-.618-.173-1.257-.261-1.885-.392l-1.921-.131h-19.469a14.1 14.1 0 0 0-7.33 2.054 14.107 14.107 0 0 0 5.409 26.03c.636.088 1.281.088 1.921.131h19.47c.641-.043 1.285-.043 1.921-.131a14.078 14.078 0 0 0 3.7-1.037 14.107 14.107 0 0 0-1.814-26.524z" class="cls-4" data-name="Path 4186"/><path id="Path_4187" d="M1729.717 836.623c-.617-.173-1.256-.261-1.884-.392l-1.921-.131h-19.47a14.109 14.109 0 0 0-7.33 2.054 14.109 14.109 0 0 0 5.409 26.031c.636.087 1.281.087 1.921.131h19.47c.64-.044 1.285-.044 1.921-.131a14.126 14.126 0 0 0 3.7-1.037 14.108 14.108 0 0 0-1.815-26.525z" class="cls-4" data-name="Path 4187"/><path id="Path_4188" d="M2071.978 685.253c0-.116-.01-.23-.018-.345-.018-.349-.037-.7-.089-1.042a11.056 11.056 0 0 0-2.814-5.844 8.486 8.486 0 0 0-1.859-1.572c-.163-.115-.33-.226-.5-.333l-.206-.139-96.885-55.937c-.494-.238-.971-.513-1.482-.713a10.982 10.982 0 0 0-3.2-.73c-.493 0-.988 0-1.48.026l-.376-.026h-237.16a14.1 14.1 0 0 0-7.33 2.054 14.108 14.108 0 0 0 5.409 26.03c.636.088 1.281.088 1.921.131h65.524l2.351.219c.483.09.966.173 1.438.3a14.108 14.108 0 0 1 1.814 26.524 14.085 14.085 0 0 1-3.7 1.037c-.636.088-1.28.088-1.921.131h-161.8a14.127 14.127 0 0 0-7.331 2.054 14.109 14.109 0 0 0 5.409 26.031c.636.087 1.281.087 1.922.131h194.792l2.351.219c.482.09.965.172 1.437.3a14.108 14.108 0 0 1 1.814 26.525 14.155 14.155 0 0 1-3.7 1.037c-.636.087-1.281.087-1.921.131h-28.94a14.109 14.109 0 0 0-7.331 2.054 14.108 14.108 0 0 0 5.409 26.03c.636.088 1.281.088 1.922.131h71.413a11.358 11.358 0 0 0 11.358-11.358v-40.048a2.135 2.135 0 0 1 3.2-1.849l49.986 28.859a43.384 43.384 0 0 1 21.692 37.571v25.247a20.883 20.883 0 0 1-31.324 18.085l-41.036-23.744a5.683 5.683 0 0 1-2.752-3.746 11.325 11.325 0 0 0-11.127-9.015h-178.517a14.121 14.121 0 0 0-7.331 2.053 14.108 14.108 0 0 0 5.41 26.031c.636.087 1.28.087 1.921.131h120.435l2.352.219c.482.09.965.172 1.437.3a14.108 14.108 0 0 1 1.814 26.525 14.084 14.084 0 0 1-3.7 1.037c-.636.087-1.28.087-1.921.131h-35.533a14.1 14.1 0 0 0-7.33 2.054 14.108 14.108 0 0 0 5.409 26.031c.636.087 1.281.087 1.921.131h190.185c.074-.006.149-.009.223-.013a10.72 10.72 0 0 0 1.296-.016q.438-.033.867-.1a10.945 10.945 0 0 0 2.33-.627c.273-.107.536-.236.8-.368.035-.015.072-.027.107-.042a13.511 13.511 0 0 0 2.38-1.344l95.083-54.9c.453-.31.93-.585 1.359-.927a11.006 11.006 0 0 0 4.142-8.6V685.506c-.009-.084-.014-.169-.019-.253zm-104.128-40.818l68.28 39.422a1.9 1.9 0 0 1 0 3.3l-13.4 7.735a7.414 7.414 0 0 1-7.413 0l-67.955-39.234a2.146 2.146 0 0 1 0-3.717l13-7.5a7.489 7.489 0 0 1 7.488-.006zm-7.45 82.165l-67.956-39.234a2.146 2.146 0 0 1 0-3.716l13-7.505a7.487 7.487 0 0 1 7.487 0l68.28 39.422a1.9 1.9 0 0 1 0 3.3l-13.4 7.735a7.412 7.412 0 0 1-7.411-.002zm89.589 61.5a5.069 5.069 0 0 1-2.535 4.39l-64.743 37.38a5.069 5.069 0 0 1-7.6-4.39v-74.759a5.067 5.067 0 0 1 2.534-4.389l17.438-10.068c.01 12.967.025 31.441.037 40.7a3.353 3.353 0 0 0 5.018 2.9l27.177-15.48a5.377 5.377 0 0 0 2.716-4.672v-43.625l12.358-7.135a5.069 5.069 0 0 1 7.6 4.389z" class="cls-4" data-name="Path 4188"/></g></g><g id="Group_3238" data-name="Group 3238"><g id="Group_3237" data-name="Group 3237"><path id="Rectangle_1602" d="M0 0h378.338v62.101H0z" class="cls-4" data-name="Rectangle 1602" transform="translate(1654.593 1013.162)"/></g><text id="مطمئن_و_هوشمند" class="cls-5" data-name="مطمئن و هوشمند" transform="translate(1843.763 1056.003)"><tspan x="-183.32" y="0">مطمئن و هوشمند</tspan></text></g></g></g></g></svg>