<svg xmlns="http://www.w3.org/2000/svg" id="artboard-svg" width="474" height="63" viewBox="0 0 474 63"><defs><style>.cls-1, .cls-25, .cls-27, .cls-8 { fill: none; } .cls-2 { clip-path: url(#clip-Map); } .cls-3 { fill: #eee; } .cls-4 { fill: #e0e0e1; } .cls-18, .cls-5 { fill: #fff; } .cls-11, .cls-14, .cls-16, .cls-19, .cls-6, .cls-7, .cls-9 { fill: #252525; } .cls-6 { font-size: 42px; } .cls-6, .cls-9 { font-family: Vazir-Bold, Vazir; font-weight: 700; } .cls-7 { font-size: 25px; } .cls-16, .cls-19, .cls-26, .cls-7 { font-family: Vazir; } .cls-8 { stroke: #252525; } .cls-25, .cls-27, .cls-8 { stroke-miterlimit: 10; } .cls-27, .cls-8 { stroke-width: 19.709px; } .cls-9 { font-size: 50px; } .cls-10, .cls-15, .cls-24 { fill: #da0037; } .cls-12 { clip-path: url(#clip-path); } .cls-13 { fill: #dadada; } .cls-14, .cls-15, .cls-19 { font-size: 30px; } .cls-14, .cls-15 { font-family: Kalameh-Medium, Kalameh; font-weight: 500; } .cls-16 { font-size: 20px; } .cls-17 { fill: #00cc52; } .cls-18 { font-size: 45px; font-family: Kalameh-SemiBold, Kalameh; font-weight: 600; } .cls-20 { clip-path: url(#clip-path-2); } .cls-21 { clip-path: url(#clip-path-3); } .cls-22 { fill: #d6dbdf; } .cls-23 { fill: #eaeef3; } .cls-24 { opacity: 0.2; } .cls-25, .cls-27 { stroke: #da0037; } .cls-25 { stroke-width: 6.679px; } .cls-26 { fill: #b2b2b2; font-size: 40px; } .cls-28 { filter: url(#Rectangle_1447); } .cls-29 { filter: url(#Rectangle_1445); } .cls-30 { filter: url(#Rectangle_78); }</style><filter id="Rectangle_78" width="945.093" height="902.019" x="67.453" y="1065.959" filterUnits="userSpaceOnUse"><feOffset dy="7"/><feGaussianBlur result="blur" stdDeviation="2.5"/><feFlood flood-opacity=".051"/><feComposite in2="blur" operator="in"/><feComposite in="SourceGraphic"/></filter><clipPath id="clip-path"><rect id="Rectangle_81" width="930.093" height="887.019" class="cls-1" data-name="Rectangle 81" rx="25" transform="translate(11975.765 1066.459)"/></clipPath><clipPath id="clip-path-2"><path id="Rectangle_1444" d="M0 0h1080v771.4H0z" class="cls-1" data-name="Rectangle 1444" transform="translate(11900.812)"/></clipPath><clipPath id="clip-path-3"><path id="Rectangle_1443" d="M0 0h1260.532v794.2H0z" class="cls-1" data-name="Rectangle 1443" transform="translate(11810.546 -11.4)"/></clipPath><filter id="Rectangle_1445" width="945.093" height="153.644" x="67.453" y="690.196" filterUnits="userSpaceOnUse"><feOffset dy="7"/><feGaussianBlur result="blur-2" stdDeviation="2.5"/><feFlood flood-opacity=".051"/><feComposite in2="blur-2" operator="in"/><feComposite in="SourceGraphic"/></filter><filter id="Rectangle_1447" width="945.093" height="153.644" x="67.453" y="861.026" filterUnits="userSpaceOnUse"><feOffset dy="7"/><feGaussianBlur result="blur-3" stdDeviation="2.5"/><feFlood flood-opacity=".051"/><feComposite in2="blur-3" operator="in"/><feComposite in="SourceGraphic"/></filter><clipPath id="clip-Map"><path d="M0 0h1080v2400H0z"/></clipPath></defs><g transform="translate(-304 -1290)"><g id="Map" class="cls-2"><g id="Group_139" data-name="Group 139" transform="translate(-11900.812)"><g id="Group_130" data-name="Group 130"><g id="Group_129" data-name="Group 129"><g id="Group_128" data-name="Group 128"><g id="Group_125" data-name="Group 125"><path id="Path_100" d="M12496.085 1298.626h-71.343v-8.136h-4.222v34.11h75.564z" class="cls-11" data-name="Path 100"/></g><g id="Group_127" data-name="Group 127"><g id="Group_126" data-name="Group 126"><path id="Path_101" d="M12411.155 1298.908c.164 4.305.082 8.611.042 12.917-4.144 0-8.246.04-12.391-.041 1.139-4.306 2.52-8.53 3.656-12.8 2.885-.117 5.81-.076 8.693-.076z" class="cls-1" data-name="Path 101"/><path id="Path_102" d="M12407.647 1333a2.9 2.9 0 0 1 2.846 2.37 2.822 2.822 0 0 1 .051.526 2.9 2.9 0 0 1-5.792 0 2.822 2.822 0 0 1 .05-.526 2.9 2.9 0 0 1 2.845-2.37z" class="cls-1" data-name="Path 102"/><path id="Path_103" d="M12481.876 1334.247a2.923 2.923 0 1 1-.47 1.126 2.887 2.887 0 0 1 .47-1.126z" class="cls-1" data-name="Path 103"/><path id="Path_104" d="M12395.595 1325.077a76.721 76.721 0 0 1 0 4.5 148.19 148.19 0 0 1-7.572-.043 51.928 51.928 0 0 1 .044-4.457q3.763-.066 7.528 0z" class="cls-1" data-name="Path 104"/><path id="Path_105" d="M12397.947 1335.9a9.7 9.7 0 1 0 9.7-9.7 9.7 9.7 0 0 0-9.7 9.7zm6.8 0a2.822 2.822 0 0 1 .05-.526 2.893 2.893 0 0 1 5.691 0 2.822 2.822 0 0 1 .051.526 2.9 2.9 0 0 1-5.792 0z" class="cls-11" data-name="Path 105"/><path id="Path_106" d="M12474.7 1334.247a9.7 9.7 0 1 0 9.581-8.049h-.048a9.7 9.7 0 0 0-9.533 8.049zm6.661 1.651a2.9 2.9 0 1 1 .938 2.13 2.9 2.9 0 0 1-.943-2.128z" class="cls-11" data-name="Path 106"/><path id="Path_107" d="M12487.737 1326.2h8.179v8.049h-1.5l-.016-.1a10.273 10.273 0 0 0-6.663-7.949z" class="cls-11" data-name="Path 107"/><path id="Path_108" d="M12385.525 1329.332c0 1.543.04 3.127.04 4.672 3.7 0 7.393 0 11.09-.041 1.218-5.362 6.418-9.668 12.022-8.856 5.078.285 8.611 4.631 10.034 9.14h55.373c0-.034.009-.068.015-.1a10.271 10.271 0 0 1 6.669-7.947h-61.932c.094-9.45.016-18.911 0-28.36l.029-.025v-7.126l-.03.026v-.01h-.056c-5.749-.041-11.5-.081-17.289 0a19.793 19.793 0 0 1-.63 6.329c-.8 3.251-2.108 6.417-2.9 9.674-.769 1.92-.7 4.635-2.716 5.716a3.265 3.265 0 0 1-.371.174c-.984.484-1.976.951-2.967 1.413-1.425.664-2.851 1.312-4.264 1.958-.164 4.429-.041 8.816-.081 13.243zm13.281-17.548c1.139-4.306 2.52-8.53 3.656-12.8 2.884-.121 5.81-.08 8.692-.08.164 4.305.082 8.611.042 12.917-4.142.004-8.245.044-12.389-.037zm-10.74 13.293q3.763-.066 7.528 0a76.721 76.721 0 0 1 0 4.5 148.19 148.19 0 0 1-7.572-.043 51.928 51.928 0 0 1 .044-4.457z" class="cls-11" data-name="Path 108"/></g></g></g><path id="Rectangle_79" d="M0 0h470.074v5.785H0z" class="cls-11" data-name="Rectangle 79" transform="translate(12205.768 1344.253)"/></g></g></g></g></g></svg>